<svg width="105" height="17" viewBox="0 0 105 17" fill="none" xmlns="http://www.w3.org/2000/svg">
<path d="M22.845 8.34926C24.39 8.11926 25.785 5.70926 26.78 4.53426C26.8867 4.40426 26.93 4.25592 26.91 4.08926L26.76 3.00925C26.7497 2.93477 26.756 2.85894 26.7785 2.78709C26.8009 2.71525 26.839 2.64912 26.89 2.59337C26.941 2.53762 27.0036 2.49359 27.0736 2.46437C27.1436 2.43516 27.2192 2.42146 27.295 2.42426C28.3917 2.47092 29.3084 2.08092 30.045 1.25426C30.1717 1.10759 30.33 1.01092 30.52 0.964256L31.315 0.774254C31.495 0.727587 31.5967 0.797586 31.62 0.984253C31.7 1.69425 29.67 2.90426 29.195 3.46426C29.0984 3.57759 29.0517 3.70925 29.055 3.85925L29.125 7.38925C29.1261 7.45122 29.1407 7.5122 29.1678 7.56792C29.195 7.62364 29.234 7.67275 29.2821 7.71181C29.3302 7.75088 29.3863 7.77894 29.4464 7.79404C29.5065 7.80915 29.5692 7.81093 29.63 7.79926C30.0434 7.72259 30.4617 7.70426 30.885 7.74426C31.2184 7.77426 31.2517 7.89092 30.985 8.09425C30.505 8.46092 29.9734 8.73259 29.39 8.90926C29.21 8.96592 29.1 9.08759 29.06 9.27425C28.88 10.1743 28.685 12.3443 27.905 12.7643C27.8275 12.8059 27.7399 12.8254 27.6519 12.8206C27.564 12.8159 27.4793 12.7869 27.4071 12.7371C27.335 12.6873 27.2784 12.6186 27.2436 12.5386C27.2088 12.4586 27.1972 12.3706 27.21 12.2843L27.595 9.63925C27.6217 9.45259 27.5417 9.37092 27.355 9.39426L24.32 9.73425C24.1267 9.75759 23.9684 9.84592 23.845 9.99925C23.225 10.7843 20.905 14.8293 20.115 14.6593C20.0269 14.6407 19.9448 14.6007 19.8759 14.5427C19.8071 14.4846 19.7537 14.4105 19.7205 14.3268C19.6873 14.2431 19.6754 14.1525 19.6858 14.063C19.6962 13.9736 19.7285 13.8881 19.78 13.8143L22.375 10.0543C22.4617 9.92759 22.51 9.78759 22.52 9.63425L22.565 8.65426C22.5717 8.47759 22.665 8.37593 22.845 8.34926ZM25.0994 8C25.0994 8 24.5994 8.06578 28 8C28 8 27.5165 6 27.295 6C27.0736 6 25.0994 8 25.0994 8Z" fill="#EBE9E7"/>
<path d="M61.7669 8.3683C63.3119 8.1383 64.7069 5.7283 65.7019 4.5533C65.8086 4.4233 65.8519 4.27497 65.8319 4.1083L65.6819 3.0283C65.6716 2.95381 65.6779 2.87799 65.7003 2.80614C65.7228 2.73429 65.7608 2.66817 65.8118 2.61241C65.8628 2.55666 65.9255 2.51263 65.9955 2.48341C66.0655 2.4542 66.141 2.4405 66.2169 2.4433C67.3136 2.48997 68.2302 2.09997 68.9669 1.2733C69.0936 1.12663 69.2519 1.02997 69.4419 0.983299L70.2369 0.793297C70.4169 0.74663 70.5186 0.816629 70.5419 1.0033C70.6219 1.7133 68.5919 2.9233 68.1169 3.4833C68.0202 3.59663 67.9736 3.7283 67.9769 3.8783L68.0469 7.40829C68.048 7.47026 68.0626 7.53124 68.0897 7.58696C68.1169 7.64268 68.1558 7.6918 68.204 7.73086C68.2521 7.76992 68.3081 7.79798 68.3682 7.81309C68.4284 7.82819 68.491 7.82997 68.5519 7.8183C68.9652 7.74163 69.3836 7.7233 69.8069 7.7633C70.1402 7.7933 70.1736 7.90996 69.9069 8.1133C69.4269 8.47996 68.8952 8.75163 68.3119 8.9283C68.1319 8.98497 68.0219 9.10663 67.9819 9.2933C67.8019 10.1933 67.6069 12.3633 66.8269 12.7833C66.7494 12.8249 66.6617 12.8445 66.5738 12.8397C66.4859 12.8349 66.4011 12.806 66.329 12.7562C66.2569 12.7064 66.2003 12.6376 66.1655 12.5577C66.1307 12.4777 66.119 12.3896 66.1319 12.3033L66.5169 9.65829C66.5436 9.47163 66.4636 9.38997 66.2769 9.4133L63.2419 9.7533C63.0486 9.77663 62.8902 9.86496 62.7669 10.0183C62.1469 10.8033 59.8269 14.8483 59.0369 14.6783C58.9488 14.6598 58.8666 14.6197 58.7978 14.5617C58.7289 14.5037 58.6755 14.4295 58.6424 14.3458C58.6092 14.2621 58.5973 14.1715 58.6076 14.0821C58.618 13.9926 58.6504 13.9072 58.7019 13.8333L61.2969 10.0733C61.3836 9.94663 61.4319 9.80663 61.4419 9.6533L61.4869 8.6733C61.4936 8.49664 61.5869 8.39497 61.7669 8.3683ZM64.0213 8.01904C64.0213 8.01904 63.5213 8.08482 66.9219 8.01904C66.9219 8.01904 66.4383 6.01904 66.2169 6.01904C65.9955 6.01904 64.0213 8.01904 64.0213 8.01904Z" fill="#EBE9E7"/>
<path d="M95.5951 12.1746C95.2651 12.9046 95.1301 13.8396 94.2401 14.1396C94.1199 14.1791 93.9907 14.1827 93.8684 14.1498C93.7461 14.1169 93.6363 14.0491 93.5526 13.9547C93.4689 13.8603 93.415 13.7436 93.3977 13.6191C93.3803 13.4946 93.4003 13.3678 93.4551 13.2546L95.5351 8.9296C95.6184 8.75627 95.6351 8.5746 95.5851 8.3846C95.1684 6.80794 95.0118 5.19793 95.1151 3.5546C95.1228 3.43237 95.1631 3.31473 95.2318 3.21431C95.3005 3.11389 95.395 3.03448 95.5051 2.9846C96.9251 2.3246 96.8151 6.02961 97.0951 6.90961C97.1685 7.12961 97.2968 7.16961 97.4801 7.02961C99.5034 5.48627 101.432 3.87627 103.265 2.19961C103.675 1.82294 104.133 1.5646 104.64 1.4246C104.91 1.35127 105.005 1.44794 104.925 1.71461C104.365 3.55461 99.8001 6.83961 98.2001 8.16961C96.8201 9.31461 96.2951 10.6096 95.5951 12.1746Z" fill="#EBE9E7"/>
<path d="M12.9051 4.38958L12.6501 4.20458C12.5168 4.10458 12.4435 3.97124 12.4301 3.80458C12.3751 3.16458 14.8601 2.02958 15.7601 1.53458C15.8371 1.49182 15.9252 1.47397 16.0126 1.48343C16.1001 1.49289 16.1825 1.5292 16.249 1.58748C16.3155 1.64577 16.3627 1.72323 16.3843 1.80942C16.406 1.89562 16.401 1.98641 16.3701 2.06958L16.1501 2.65958C16.1392 2.6885 16.1351 2.71956 16.1382 2.75033C16.1413 2.78109 16.1515 2.81071 16.168 2.83687C16.1844 2.86304 16.2067 2.88503 16.2332 2.90111C16.2596 2.9172 16.2893 2.92694 16.3201 2.92958C17.6468 3.02291 18.8085 3.50125 19.8051 4.36458C19.9851 4.52125 19.9935 4.68792 19.8301 4.86458C18.6735 6.13458 17.3085 7.12458 15.7351 7.83458C15.6236 7.8849 15.5254 7.96059 15.4484 8.05559C15.3713 8.1506 15.3175 8.2623 15.2913 8.38179C15.2651 8.50127 15.2671 8.62523 15.2973 8.74378C15.3275 8.86233 15.385 8.97219 15.4651 9.06458L18.5151 12.5346C18.5354 12.5582 18.55 12.5862 18.5578 12.6163C18.5656 12.6464 18.5664 12.6778 18.5601 12.7079C18.5537 12.738 18.5405 12.766 18.5214 12.7898C18.5023 12.8135 18.4779 12.8323 18.4501 12.8446C17.3801 13.3346 14.2001 10.0946 13.4551 9.26958C13.3644 9.16787 13.2966 9.04782 13.2563 8.91758C13.2161 8.78735 13.2043 8.64997 13.2219 8.51479C13.2394 8.37961 13.2859 8.24979 13.358 8.13415C13.4302 8.0185 13.5264 7.91975 13.6401 7.84458L17.2501 5.48958C17.3101 5.45021 17.3565 5.39337 17.3831 5.32676C17.4096 5.26016 17.4151 5.18699 17.3988 5.11717C17.3824 5.04735 17.345 4.98423 17.2916 4.93637C17.2382 4.88851 17.1713 4.85822 17.1001 4.84958L15.0651 4.62958C14.8751 4.60625 14.7301 4.67625 14.6301 4.83958C13.1301 7.24292 11.7418 9.70125 10.4651 12.2146C10.1151 12.8996 9.55013 13.2896 8.91013 12.6646C8.7768 12.5313 8.75679 12.3829 8.85013 12.2196L12.9901 4.78458C13.0768 4.62791 13.0485 4.49624 12.9051 4.38958Z" fill="#EBE9E7"/>
<path d="M41.9148 3.65452C44.0998 4.74952 42.0698 7.15452 40.6948 7.87952C39.2815 8.62618 37.7998 9.18285 36.2498 9.54951C36.0965 9.58618 35.9848 9.53284 35.9148 9.38951C35.5348 8.61451 40.2148 6.95452 40.7748 5.90952C40.8648 5.73952 40.8448 5.58118 40.7148 5.43452C39.9848 4.62118 39.0731 4.21452 37.9798 4.21452C37.8031 4.21452 37.6681 4.28785 37.5748 4.43452C35.5515 7.60452 33.7965 10.9162 32.3098 14.3695C32.2331 14.5429 32.2098 14.7212 32.2398 14.9045C32.3131 15.3412 32.2598 15.7495 32.0798 16.1295C31.9998 16.2995 31.8665 16.3729 31.6798 16.3495C31.2165 16.2895 30.9031 16.0512 30.7398 15.6345C30.6665 15.4545 30.6681 15.2762 30.7448 15.0995C32.3581 11.3695 34.2215 7.77118 36.3348 4.30451C36.4415 4.12785 36.4315 3.95785 36.3048 3.79452L36.0148 3.43452C35.9148 3.30452 35.9081 3.17118 35.9948 3.03452C36.9848 1.45952 40.6698 3.02952 41.9148 3.65452Z" fill="#EBE9E7"/>
<path d="M72.6548 12.7795C72.6377 12.777 72.5888 12.7543 72.5161 12.7152C72.4435 12.6762 72.3513 12.623 72.2548 12.5645C71.3348 12.0145 71.6448 11.1595 72.1198 10.3695C73.6398 7.8362 75.3298 5.4212 77.1898 3.12453C77.2864 3.00453 77.4131 2.93453 77.5698 2.91453C77.9564 2.8712 78.2648 2.99787 78.4948 3.29454C78.6014 3.43454 78.6031 3.57787 78.4998 3.72454L73.7298 10.3795C73.664 10.4713 73.6258 10.5799 73.6194 10.6926C73.6131 10.8053 73.639 10.9175 73.694 11.0161C73.7491 11.1147 73.831 11.1955 73.9303 11.2493C74.0296 11.303 74.1421 11.3274 74.2548 11.3195C76.0314 11.1929 77.7348 10.7695 79.3648 10.0495C79.4339 10.0197 79.511 10.0133 79.5841 10.0314C79.6572 10.0494 79.7224 10.0909 79.7698 10.1495C80.8548 11.5345 73.3348 12.7545 72.6548 12.7795Z" fill="#EBE9E7"/>
<path d="M90.3548 10.7593C89.1248 11.4693 82.4498 14.4193 82.2398 11.5043C82.2298 11.3309 82.2682 11.1676 82.3548 11.0143C83.9582 8.25427 85.7765 5.64261 87.8098 3.17927C87.9365 3.02594 88.0982 2.93928 88.2948 2.91928C88.6682 2.88261 88.9415 3.03927 89.1148 3.38927C89.1815 3.52594 89.1715 3.65761 89.0848 3.78428L84.2348 10.6343C84.1997 10.6831 84.1784 10.7406 84.1732 10.8005C84.168 10.8605 84.179 10.9207 84.205 10.975C84.2311 11.0292 84.2714 11.0754 84.3215 11.1087C84.3716 11.142 84.4297 11.1612 84.4898 11.1643C86.2598 11.2543 87.9565 10.9626 89.5798 10.2893C89.8498 10.1759 90.0782 10.1393 90.2648 10.1793C90.3268 10.193 90.3831 10.2251 90.4265 10.2713C90.4699 10.3176 90.4983 10.3759 90.508 10.4385C90.5177 10.5012 90.5083 10.5653 90.481 10.6226C90.4537 10.6798 90.4097 10.7274 90.3548 10.7593Z" fill="#EBE9E7"/>
<path d="M3.09496 4.91445C2.68496 4.94945 -0.975039 4.68445 0.549961 3.42945C0.673294 3.32611 0.816628 3.27612 0.979961 3.27945L8.58996 3.46445C8.68712 3.46851 8.78027 3.50429 8.85517 3.5663C8.93007 3.62832 8.9826 3.71317 9.00471 3.80787C9.02682 3.90256 9.01731 4.00189 8.97763 4.09066C8.93794 4.17944 8.87027 4.25278 8.78496 4.29945C7.87496 4.77945 6.90329 4.93612 5.86996 4.76945C5.68829 4.74152 5.50227 4.77016 5.33691 4.8515C5.17155 4.93284 5.03477 5.06299 4.94496 5.22445L0.784961 12.8144C0.750194 12.8775 0.70295 12.9327 0.646175 12.9766C0.5894 13.0204 0.524308 13.0521 0.454959 13.0695C-1.39504 13.4945 2.97496 5.76445 3.27496 5.18945C3.37829 4.98945 3.31829 4.89778 3.09496 4.91445Z" fill="#EBE9E7"/>
<path d="M54.2401 4.82463C53.6001 4.79463 51.2901 5.28463 51.5401 3.91463C51.576 3.72498 51.6793 3.55474 51.831 3.43529C51.9826 3.31583 52.1723 3.25521 52.3651 3.26462C53.5751 3.32462 59.9951 3.26963 60.1301 3.83463C60.1701 3.99796 60.1217 4.12963 59.9851 4.22963C58.9251 4.98963 57.6251 4.75463 56.4951 4.95963C56.3017 4.9963 56.1584 5.09963 56.0651 5.26963L51.8051 12.9396C51.766 13.0078 51.7066 13.062 51.6351 13.0946C49.5451 14.0696 54.2451 5.54962 54.4451 5.19462C54.5784 4.95796 54.5101 4.83463 54.2401 4.82463Z" fill="#EBE9E7"/>
</svg>
